<svg width="150" height="198" viewBox="0 0 150 198" fill="none" xmlns="http://www.w3.org/2000/svg">
<path d="M144.996 11.2087C145.096 13.5247 144.513 15.8186 143.321 17.8001C142.13 19.7816 140.383 21.3618 138.302 22.3406C136.22 23.3195 133.898 23.653 131.629 23.2991C129.36 22.9451 127.246 21.9196 125.555 20.3523C123.863 18.785 122.67 16.7462 122.126 14.494C121.582 12.2417 121.712 9.87726 122.5 7.69964C123.287 5.52198 124.696 3.6291 126.549 2.26041C128.402 0.891727 130.616 0.108745 132.91 0.010532C135.983 -0.121039 138.982 0.984463 141.248 3.08417C143.514 5.18387 144.862 8.10606 144.996 11.2087Z" fill="#F37626"/>
<path d="M77.3311 148.992C46.4292 148.992 19.4413 137.656 5.4324 120.876C10.6498 135.932 20.3737 148.979 33.258 158.21C46.1426 167.441 61.5501 172.4 77.3485 172.4C93.1468 172.4 108.554 167.441 121.439 158.21C134.323 148.979 144.047 135.932 149.265 120.876C135.221 137.656 108.234 148.992 77.3311 148.992Z" fill="#F37626"/>
<path d="M77.326 39.8423C108.228 39.8423 135.216 51.1791 149.225 67.959C144.008 52.9022 134.284 39.8553 121.4 30.6242C108.515 21.3931 93.1074 16.4344 77.3091 16.4344C61.5107 16.4344 46.1032 21.3931 33.2186 30.6242C20.3343 39.8553 10.6104 52.9022 5.393 67.959C19.4363 51.2138 46.424 39.8423 77.326 39.8423Z" fill="#F37626"/>
<path d="M34.9088 181.623C35.0355 184.543 34.3012 187.435 32.799 189.934C31.2967 192.432 29.094 194.424 26.4698 195.658C23.8455 196.892 20.9177 197.312 18.0571 196.864C15.1964 196.417 12.5316 195.123 10.3999 193.145C8.2682 191.168 6.76557 188.596 6.08222 185.756C5.39887 182.915 5.56554 179.934 6.56112 177.19C7.55671 174.445 9.33645 172.06 11.675 170.338C14.0135 168.615 16.8057 167.632 19.6981 167.512C23.5668 167.353 27.3404 168.748 30.1917 171.393C33.043 174.038 34.7393 177.717 34.9088 181.623Z" fill="#F37626"/>
<path d="M8.95441 36.0471C7.25746 36.1212 5.57689 35.6852 4.12542 34.7944C2.67394 33.9036 1.51685 32.598 0.800572 31.0429C0.0842948 29.4878 -0.158955 27.7531 0.101608 26.0583C0.362171 24.3636 1.11483 22.785 2.26433 21.5223C3.41383 20.2597 4.90847 19.3697 6.55909 18.9652C8.2097 18.5606 9.94208 18.6596 11.537 19.2496C13.1318 19.8396 14.5175 20.8942 15.5186 22.2797C16.5196 23.6653 17.0911 25.3195 17.1606 27.0332C17.2537 29.3266 16.4419 31.5637 14.9035 33.2535C13.3651 34.9434 11.2256 35.9481 8.95441 36.0471Z" fill="#F37626"/>
</svg>
